<?xml version="1.0" encoding="utf-8"?>
<!-- Generator: Adobe Illustrator 26.0.1, SVG Export Plug-In . SVG Version: 6.00 Build 0)  -->
<svg version="1.1" id="Layer_1" xmlns="http://www.w3.org/2000/svg" xmlns:xlink="http://www.w3.org/1999/xlink" x="0px" y="0px"
	 viewBox="0 0 650 350" style="enable-background:new 0 0 650 350;" xml:space="preserve">
<style type="text/css">
	.st0{clip-path:url(#SVGID_00000158022800494423054720000018357930403578405004_);}
	.st1{fill:#ffffff;}
</style>
<g>
	<g>
		<defs>
			<rect id="SVGID_1_" width="650" height="350"/>
		</defs>
		<clipPath id="SVGID_00000023966664060372100320000018151985239943664004_">
			<use xlink:href="#SVGID_1_"  style="overflow:visible;"/>
		</clipPath>
		<g id="Cavli_Hubble_Logotype" style="clip-path:url(#SVGID_00000023966664060372100320000018151985239943664004_);">
			<g id="Group_7" transform="translate(-78.99 -242.461)">
				<path id="Path_130" class="st1" d="M413.8,389.5c3.8,1.3,7.8,2,11.8,2c1.6,0,3.3-0.1,4.9-0.4s3.2-0.6,4.8-1.1
					c1.6-0.5,3.1-1.1,4.6-1.9c1.4-0.6,2.4-1.8,2.6-3.3c0.3-1.6-0.2-3.2-1.3-4.4c-0.7-1-1.8-1.6-3-1.8c-1.2-0.2-2.5,0-3.6,0.6
					c-1.4,0.7-2.9,1.3-4.5,1.5c-1.5,0.3-3.1,0.4-4.7,0.4c-2.7,0-5.3-0.4-7.8-1.3c-2.4-0.8-4.5-2.1-6.3-3.8c-1.8-1.8-3.3-4-4.2-6.5
					c-1.1-2.9-1.6-6-1.5-9.1c0-2.8,0.4-5.6,1.3-8.2c0.8-2.4,2.2-4.6,3.9-6.4c1.8-1.8,3.9-3.3,6.3-4.2c2.7-1,5.5-1.5,8.3-1.5
					c1.6,0,3.2,0.2,4.8,0.5c1.5,0.3,3,0.8,4.4,1.5c1.1,0.6,2.3,0.8,3.6,0.7c1.2-0.1,2.2-0.7,2.9-1.7c1.1-1.2,1.5-2.8,1.3-4.4
					c-0.2-1.5-1.2-2.9-2.6-3.5c-2.2-1.1-4.5-1.9-6.8-2.5c-2.4-0.6-4.9-0.9-7.4-0.9c-4.2,0-8.5,0.7-12.4,2.3c-3.7,1.5-7,3.6-9.9,6.4
					c-2.8,2.8-5,6.1-6.5,9.7c-1.6,3.9-2.3,8.1-2.3,12.3c-0.1,4.6,0.8,9.2,2.5,13.5c1.5,3.7,3.9,7,6.9,9.7
					C406.8,386.2,410.2,388.2,413.8,389.5z"/>
				<path id="Path_131" class="st1" d="M475.5,390.4c1.7-0.6,3.4-1.5,4.9-2.6c0.9-0.7,1.8-1.5,2.6-2.4c0,1.4,0.5,2.7,1.5,3.7
					c2.1,2,5.4,2,7.4,0c1-1,1.5-2.4,1.5-3.7v-36.5c0.1-1.4-0.5-2.8-1.5-3.8s-2.3-1.5-3.7-1.5c-1.4,0-2.7,0.5-3.7,1.5
					s-1.5,2.4-1.5,3.8v0.1c-0.5-0.5-1.1-1-1.7-1.4c-1.6-1.2-3.5-2.2-5.4-2.8c-2.2-0.8-4.5-1.1-6.8-1.1c-3.7,0-7.4,1-10.5,3.1
					c-3.2,2.1-5.8,5-7.5,8.5c-3.7,7.9-3.7,17,0,24.8c1.7,3.5,4.4,6.4,7.6,8.4s7,3.1,10.8,3.1C471.5,391.5,473.5,391.1,475.5,390.4z
					 M459.7,374.9c-1.1-2.3-1.6-4.8-1.6-7.3c0-2.6,0.5-5.1,1.6-7.4c1-2.1,2.5-3.9,4.4-5.2c1.9-1.3,4.2-1.9,6.6-1.9
					c2.4-0.1,4.7,0.6,6.6,1.9s3.5,3.1,4.4,5.2c1.1,2.3,1.6,4.9,1.6,7.4s-0.5,5-1.6,7.3c-1,2.1-2.5,3.9-4.4,5.2
					c-2,1.3-4.3,1.9-6.6,1.9c-2.3,0-4.6-0.6-6.6-1.9C462.2,378.8,460.7,377,459.7,374.9L459.7,374.9z"/>
				<path id="Path_132" class="st1" d="M519.4,390c0.9,0.6,2.1,0.8,3.1,0.6c2-0.1,3.7-1.4,4.4-3.3l16.1-35.5
					c0.2-0.4,0.3-0.8,0.5-1.3c0.1-0.4,0.2-0.9,0.2-1.3c0-1.2-0.4-2.4-1.3-3.3c-0.9-0.9-2.2-1.4-3.5-1.3c-2.1-0.1-3.6,1-4.6,3.3
					L522.5,375l-11.9-27.2c-0.4-1-1.1-1.9-2.1-2.5c-0.9-0.5-2-0.8-3-0.8c-1.4-0.1-2.8,0.5-3.7,1.5c-0.8,0.8-1.3,1.9-1.4,3.1
					c0,0.6,0.1,1.1,0.2,1.6s0.3,0.8,0.4,1.1l16,35.5C517.5,388.4,518.3,389.4,519.4,390z"/>
				<path id="Path_133" class="st1" d="M563.1,332c0-1.4-0.5-2.7-1.4-3.8c-0.9-1-2.3-1.6-3.7-1.5c-2.8-0.1-5.2,2.2-5.3,5
					c0,0.1,0,0.1,0,0.2v53.3c0,1.4,0.5,2.8,1.5,3.7c0.9,1,2.3,1.5,3.6,1.5c2.9,0.1,5.2-2.2,5.3-5.1c0-0.1,0-0.1,0-0.2L563.1,332z"/>
				<path id="Path_134" class="st1" d="M579.7,338.8c1.5,0.1,2.9-0.2,4.2-0.9c0.9-0.6,1.3-1.7,1.3-3.4v-1.6c0.1-1.2-0.3-2.5-1.2-3.4
					c-0.8-0.6-2.2-0.9-4.2-0.9c-1.4-0.1-2.9,0.2-4.1,0.9c-0.9,0.6-1.3,1.7-1.3,3.4v1.6c-0.1,1.2,0.3,2.5,1.2,3.4
					C576.8,338.6,578.3,339,579.7,338.8z"/>
				<path id="Path_135" class="st1" d="M579.8,344.5c-1.4,0-2.7,0.5-3.7,1.5s-1.5,2.4-1.5,3.8v35.6c0,1.4,0.5,2.7,1.5,3.7
					c2.1,2,5.4,2,7.4,0c1-1,1.5-2.4,1.5-3.7v-35.6c0-1.4-0.5-2.8-1.5-3.8S581.2,344.4,579.8,344.5z"/>
				<path id="Path_136" class="st1" d="M441.3,433.7c-1.4,0-2.8,0.5-3.8,1.5c-1.1,0.9-1.7,2.3-1.6,3.7v19.8h-27.5V439
					c0-1.4-0.5-2.8-1.6-3.7c-1-1-2.3-1.5-3.7-1.5c-1.5-0.1-2.9,0.5-4,1.5c-1,1-1.6,2.3-1.6,3.7v49.8c-0.1,2.8,2.1,5.2,4.9,5.3
					c0.1,0,0.3,0,0.4,0c1.4,0,2.8-0.5,3.8-1.5c1.1-0.9,1.7-2.3,1.6-3.7v-20.1h27.5v20.1c0,1.4,0.5,2.8,1.6,3.7c1,1,2.3,1.5,3.7,1.5
					c1.5,0.1,2.9-0.5,4-1.5c1-1,1.5-2.3,1.5-3.7V439c0.1-2.8-2.1-5.2-4.9-5.3C441.6,433.7,441.4,433.7,441.3,433.7L441.3,433.7z"/>
				<path id="Path_137" class="st1" d="M492.9,447.9c-1.4,0-2.7,0.5-3.7,1.5s-1.5,2.4-1.5,3.7V475c0,3.5-0.8,6.1-2.3,7.8
					c-1.6,1.7-3.9,2.5-7.1,2.5c-3.1,0-5.4-0.8-7-2.5s-2.3-4.3-2.3-7.8v-21.9c0-1.4-0.5-2.7-1.5-3.7c-2.1-2-5.4-2-7.4,0
					c-1,1-1.5,2.4-1.5,3.7V475c0,6.1,1.7,10.9,5,14.5c3.4,3.6,8.2,5.3,14.6,5.3s11.3-1.8,14.7-5.3c3.4-3.6,5.1-8.4,5.1-14.5v-21.9
					c0-1.4-0.5-2.7-1.5-3.7C495.7,448.4,494.3,447.9,492.9,447.9z"/>
				<path id="Path_138" class="st1" d="M544,450.1c-3.2-2.1-7-3.1-10.8-3.1c-2,0-3.9,0.3-5.7,1c-1.7,0.6-3.3,1.5-4.8,2.6
					c-1.1,0.8-2.1,1.8-3,2.9v-18.1c0-1.4-0.5-2.8-1.5-3.8c-2.1-2-5.4-2-7.4,0c-1,1-1.5,2.4-1.5,3.8v54.2c-0.1,1.4,0.5,2.8,1.5,3.8
					s2.3,1.5,3.7,1.5c1.4,0,2.7-0.5,3.7-1.5s1.5-2.4,1.5-3.8v-0.5c0.7,0.7,1.4,1.3,2.1,1.8c1.6,1.2,3.4,2.2,5.3,2.8
					c2.1,0.8,4.3,1.1,6.5,1.1c3.7,0,7.4-1,10.6-3.1c3.2-2.1,5.8-5,7.5-8.5c3.7-7.9,3.7-17,0-24.9C549.9,455.1,547.3,452.2,544,450.1
					z M542.9,478.3c-1,2.1-2.5,3.9-4.4,5.2c-2,1.3-4.3,1.9-6.6,1.9c-2.4,0.1-4.7-0.6-6.6-1.9c-1.9-1.3-3.5-3.1-4.4-5.2
					c-1.1-2.3-1.6-4.8-1.6-7.4c0-2.5,0.5-5.1,1.6-7.4c1-2.1,2.5-3.8,4.4-5.1c2-1.3,4.3-1.9,6.6-1.9c2.3-0.1,4.6,0.6,6.6,1.9
					c1.9,1.3,3.4,3.1,4.4,5.1c1.1,2.3,1.6,4.8,1.6,7.4S544,476,542.9,478.3L542.9,478.3z"/>
				<path id="Path_139" class="st1" d="M597.8,450.1c-3.2-2.1-7-3.1-10.8-3.1c-2,0-3.9,0.3-5.7,1c-1.7,0.6-3.3,1.5-4.8,2.6
					c-1.1,0.8-2.1,1.8-3,2.9v-18.1c0-1.4-0.5-2.8-1.5-3.8c-2.1-2-5.4-2-7.4,0c-1,1-1.5,2.4-1.5,3.8v54.2c-0.1,1.4,0.5,2.8,1.5,3.8
					s2.3,1.5,3.7,1.5s2.7-0.5,3.7-1.5s1.5-2.4,1.5-3.8v-0.5c0.7,0.7,1.4,1.3,2.1,1.8c1.6,1.2,3.4,2.2,5.3,2.8
					c2.1,0.8,4.3,1.1,6.5,1.1c3.7,0,7.4-1,10.6-3.1c3.2-2.1,5.8-5,7.5-8.5c3.7-7.9,3.7-17,0-24.9C603.6,455.1,601,452.2,597.8,450.1
					z M596.6,478.3c-1,2.1-2.5,3.9-4.4,5.2c-2,1.3-4.3,1.9-6.6,1.9c-2.4,0.1-4.7-0.6-6.6-1.9c-1.9-1.3-3.5-3.1-4.4-5.2
					c-1.1-2.3-1.6-4.8-1.6-7.4c0-2.5,0.5-5.1,1.6-7.4c1-2.1,2.5-3.8,4.4-5.1c2-1.3,4.3-1.9,6.6-1.9c2.3-0.1,4.6,0.6,6.6,1.9
					c1.9,1.3,3.4,3.1,4.4,5.1c1.1,2.3,1.6,4.8,1.6,7.4C598.3,473.5,597.7,476,596.6,478.3L596.6,478.3z"/>
				<path id="Path_140" class="st1" d="M622.9,430.3c-2.8-0.1-5.2,2.2-5.3,5c0,0.1,0,0.1,0,0.2v53.3c0,1.4,0.5,2.7,1.5,3.7
					c0.9,1,2.3,1.5,3.6,1.5c2.8,0.1,5.2-2.2,5.3-5.1c0-0.1,0-0.1,0-0.2v-53.3c0-1.4-0.5-2.7-1.4-3.8
					C625.6,430.8,624.3,430.2,622.9,430.3z"/>
				<path id="Path_141" class="st1" d="M679,473.3c1-0.8,1.6-2.1,1.6-3.4c0-3-0.6-6-1.8-8.8c-1.1-2.7-2.8-5.2-4.8-7.3
					c-2-2.1-4.3-3.8-6.9-5c-2.6-1.2-5.4-1.8-8.3-1.8c-3.8,0-7.5,1-10.8,2.9c-3.4,2-6.3,4.9-8.2,8.4c-2.2,4.1-3.3,8.6-3.1,13.2
					c-0.1,4.1,0.9,8.2,2.9,11.9c1.9,3.5,4.8,6.4,8.3,8.3c6.5,3.4,14.1,4,21.1,1.6c2.3-0.7,4.4-1.8,6.3-3.3c1.4-0.9,2.3-2.5,2.4-4.2
					c0-2.4-2-4.3-4.4-4.3l0,0c-1,0-2,0.3-2.9,0.8c-0.6,0.3-1.3,0.8-2.1,1.3c-1,0.6-2,1-3.1,1.3c-1.7,0.4-3.4,0.6-5.1,0.5
					c-6.4,0-11.9-4.6-13.1-10.9h28.4C676.6,474.6,677.9,474.1,679,473.3z M650.1,459.6c1.1-1.1,2.4-1.9,3.9-2.3
					c1.6-0.5,3.2-0.7,4.8-0.7c1.7,0,3.5,0.4,5,1.2c1.5,0.7,2.9,1.8,4,3.1c1,1.3,1.7,2.8,1.8,4.5v0.6H647c0.1-0.7,0.3-1.3,0.5-2
					C648,462.3,648.9,460.8,650.1,459.6L650.1,459.6z"/>
				<path id="Path_142" class="st1" d="M270.1,301c-2.6-2.6-6.7-2.6-9.3,0c-1,0.9-1.6,2.2-1.8,3.5h-0.1v108.7h-79.2
					c-15.7,0-29.9,6.2-39.5,16V310.6c-0.3-3.6-3.4-6.4-7-6.1c-3.3,0.2-5.9,2.8-6.1,6.1v218.8c0.3,3.6,3.4,6.4,7,6.1
					c3.3-0.2,5.9-2.8,6.1-6.1v-69.3c0-19.1,17.7-34.7,39.5-34.7h85.8c3.5,0.1,6.4-2.6,6.6-6.1V304.5H272
					C271.6,303.2,271,302,270.1,301z"/>
				<path id="Path_143" class="st1" d="M265.6,434.6h-86.7c-3.3-0.2-6.1,2.2-6.4,5.5c-0.2,3.3,2.2,6.1,5.5,6.4c0.3,0,0.6,0,0.9,0
					h80.3v81.6c0.3,3.5,3.4,6.2,6.9,5.9c3.1-0.2,5.6-2.7,5.9-5.9v-87.6C271.9,437.1,269,434.5,265.6,434.6z"/>
				<path id="Path_144" class="st1" d="M238.2,460h-52.9c-3-0.2-5.6,2-5.8,5s2,5.6,5,5.8c0.3,0,0.5,0,0.8,0h47.1v57
					c0.2,3.2,3,5.6,6.2,5.4c2.9-0.2,5.2-2.5,5.4-5.4v-62.4C243.9,462.3,241.3,459.9,238.2,460z"/>
				<path id="Path_145" class="st1" d="M158.1,400.2h59.6c3.4,0.2,6.3-2.3,6.6-5.7c0.2-3.4-2.3-6.3-5.7-6.6c-0.3,0-0.6,0-0.9,0h-53
					v-64.2c-0.3-3.6-3.4-6.4-7-6.1c-3.3,0.2-5.9,2.8-6.1,6.1V394C151.7,397.6,154.6,400.3,158.1,400.2z"/>
				<path id="Path_146" class="st1" d="M157.7,462c-3.2,0.2-5.5,3-5.3,6.1c0.2,3.2,3,5.5,6.1,5.3c3-0.2,5.3-2.7,5.3-5.7
					C163.7,464.4,160.9,461.8,157.7,462z"/>
				<path id="Path_147" class="st1" d="M238.3,399.6c3.2-0.2,5.5-3,5.3-6.1c-0.2-3.2-3-5.5-6.1-5.3c-3,0.2-5.3,2.7-5.3,5.7
					C232.3,397.2,235.1,399.8,238.3,399.6z"/>
				<path id="Path_148" class="st1" d="M338.5,272.5c-1.5,0-2.8,1.3-2.8,2.8v284.1c0,1.5,1.3,2.8,2.8,2.8s2.8-1.3,2.8-2.8V275.3
					C341.3,273.7,340,272.5,338.5,272.5z"/>
			</g>
		</g>
	</g>
</g>
</svg>
