<?xml version="1.0" encoding="utf-8"?>
<!-- Generator: Adobe Illustrator 16.0.0, SVG Export Plug-In . SVG Version: 6.00 Build 0)  -->
<!DOCTYPE svg PUBLIC "-//W3C//DTD SVG 1.1//EN" "http://www.w3.org/Graphics/SVG/1.1/DTD/svg11.dtd">
<svg version="1.1" id="Layer_1" xmlns="http://www.w3.org/2000/svg" xmlns:xlink="http://www.w3.org/1999/xlink" x="0px" y="0px"
	 width="261px" height="119px" viewBox="0 0 261 119" enable-background="new 0 0 261 119" xml:space="preserve">
<g>
	<g>
		<polygon fill="#FFFFFF" points="122.794,82.467 122.794,96.13 105.426,96.13 105.426,82.467 99.571,82.467 99.571,115.851 
			105.426,115.851 105.426,101.286 122.794,101.286 122.794,115.851 128.65,115.851 128.65,82.467 		"/>
		<g>
			<defs>
				<path id="SVGID_1_" d="M152.655,91.677v16.967c-1.253,1.651-3.556,3.154-6.208,3.154c-2.953,0-4.854-1.152-4.854-4.907V91.677
					h-5.255v17.117c0,4.954,2.552,7.657,7.758,7.657c3.804,0,6.807-1.851,8.56-3.804v3.203h5.254V91.677H152.655z"/>
			</defs>
			<use xlink:href="#SVGID_1_"  overflow="visible" fill="#FFFFFF"/>
			<clipPath id="SVGID_2_">
				<use xlink:href="#SVGID_1_"  overflow="visible"/>
			</clipPath>
			<rect x="132.166" y="87.505" clip-path="url(#SVGID_2_)" fill="#FFFFFF" width="29.913" height="33.115"/>
		</g>
		<g>
			<defs>
				<path id="SVGID_3_" d="M170.701,108.594v-9.561c1.151-1.801,3.753-3.303,6.206-3.303c4.204,0,6.857,3.354,6.857,8.059
					c0,4.704-2.653,8.009-6.857,8.009C174.454,111.798,171.853,110.395,170.701,108.594 M165.446,82.467v33.384h5.255v-3.305
					c1.852,2.402,4.604,3.905,7.759,3.905c6.155,0,10.709-4.706,10.709-12.662c0-7.809-4.503-12.714-10.709-12.714
					c-3.054,0-5.857,1.402-7.759,3.954V82.467H165.446z"/>
			</defs>
			<use xlink:href="#SVGID_3_"  overflow="visible" fill="#FFFFFF"/>
			<clipPath id="SVGID_4_">
				<use xlink:href="#SVGID_3_"  overflow="visible"/>
			</clipPath>
			<rect x="161.274" y="78.296" clip-path="url(#SVGID_4_)" fill="#FFFFFF" width="32.065" height="42.324"/>
		</g>
		<g>
			<defs>
				<path id="SVGID_5_" d="M200.51,108.594v-9.561c1.152-1.801,3.754-3.303,6.206-3.303c4.204,0,6.857,3.354,6.857,8.059
					c0,4.704-2.653,8.009-6.857,8.009C204.264,111.798,201.662,110.395,200.51,108.594 M195.255,82.467v33.384h5.255v-3.305
					c1.853,2.402,4.605,3.905,7.76,3.905c6.154,0,10.708-4.706,10.708-12.662c0-7.809-4.504-12.714-10.708-12.714
					c-3.055,0-5.858,1.402-7.76,3.954V82.467H195.255z"/>
			</defs>
			<use xlink:href="#SVGID_5_"  overflow="visible" fill="#FFFFFF"/>
			<clipPath id="SVGID_6_">
				<use xlink:href="#SVGID_5_"  overflow="visible"/>
			</clipPath>
			<rect x="191.084" y="78.296" clip-path="url(#SVGID_6_)" fill="#FFFFFF" width="32.066" height="42.324"/>
		</g>
		<rect x="225.064" y="82.467" fill="#FFFFFF" width="5.255" height="33.384"/>
		<g>
			<defs>
				<path id="SVGID_7_" d="M248.618,95.38c4.753,0,6.706,3.552,6.805,6.405h-13.612C242.059,98.834,244.112,95.38,248.618,95.38
					 M236.354,103.738c0,7.658,5.406,12.713,12.664,12.713c3.851,0,7.405-1.202,9.809-3.504l-2.403-3.454
					c-1.702,1.703-4.504,2.654-6.854,2.654c-4.557,0-7.309-3.004-7.708-6.657h18.669v-1.252c0-7.606-4.655-13.163-11.912-13.163
					C241.46,91.075,236.354,96.731,236.354,103.738"/>
			</defs>
			<use xlink:href="#SVGID_7_"  overflow="visible" fill="#FFFFFF"/>
			<clipPath id="SVGID_8_">
				<use xlink:href="#SVGID_7_"  overflow="visible"/>
			</clipPath>
			<rect x="232.183" y="86.903" clip-path="url(#SVGID_8_)" fill="#FFFFFF" width="32.517" height="33.717"/>
		</g>
	</g>
	<g>
		<path fill="#FFFFFF" d="M191.961,67.565c0,2.312-1.872,4.181-4.188,4.181H160.39V14.29c0-2.309,1.873-4.175,4.175-4.175
			c2.305,0,4.176,1.866,4.176,4.175v49.088h19.033C190.089,63.378,191.961,65.258,191.961,67.565"/>
		<path fill="#FFFFFF" d="M152.587,16.108l0.007,0.005l-0.052,0.149l-20.591,52.124c-0.262,0.527-0.565,0.99-0.917,1.395
			c-0.111,0.141-0.24,0.275-0.369,0.404c-0.101,0.1-0.202,0.194-0.309,0.289c-0.083,0.066-0.169,0.14-0.264,0.21
			c-0.021,0.012-0.033,0.024-0.053,0.039c-0.971,0.699-2.12,1.058-3.354,1.058h-2.465l-3.002-7.575l-19.1-48.294
			c-0.007-0.012-0.013-0.019-0.013-0.033c-0.203-0.491-0.318-1.024-0.318-1.589c0-2.309,1.872-4.175,4.175-4.175
			c1.818,0,3.367,1.165,3.932,2.788h0.007l17.511,44.201l17.439-44.06c0.006-0.013,0.006-0.025,0.019-0.045l0.115-0.296h0.007
			c0.62-1.517,2.108-2.587,3.847-2.587c2.309,0,4.172,1.866,4.172,4.175C153.012,14.944,152.863,15.555,152.587,16.108"/>
		<path fill="#FFFFFF" d="M112.454,71.789h-6.175c-1.702,0-3.17-1.024-3.818-2.491l-0.092-0.25l-3.637-9.177l-3.313-8.369
			L84.129,22.969L79.624,34.34l-6.792,17.162h13.587l3.313,8.369H69.52l-2.762,6.988l-2.767-6.988l-1.737-4.391l17.007-42.052h0.005
			c0.763-1.933,2.647-3.299,4.848-3.299c2.323,0,4.29,1.521,4.964,3.616L112.454,71.789z"/>
		<path fill="#FFFFFF" d="M64.811,11.333c0,0,0-0.001,0-0.003c-0.015-0.015-0.032-0.027-0.047-0.038
			c-0.009-0.008-0.019-0.019-0.031-0.027c-6.874-6.056-15.896-9.731-25.774-9.731c-21.548,0-39.015,17.468-39.015,39.014
			c0,21.548,17.467,39.013,39.015,39.013c7.867,0,15.186-2.335,21.314-6.344l-3.871-9.781c-4.838,3.7-10.882,5.904-17.443,5.904
			c-15.877,0-28.746-12.87-28.746-28.746c0-15.875,12.869-28.746,28.746-28.746c7.265,0,13.903,2.697,18.965,7.144
			c0.001,0,0.003,0,0.004,0c0.924,0.875,2.166,1.413,3.539,1.413c2.848,0,5.155-2.307,5.155-5.154
			C66.621,13.683,65.917,12.278,64.811,11.333"/>
		<path fill="#FFFFFF" d="M207.823,14.273v53.336c-0.008,2.31-1.866,4.167-4.175,4.167c-2.301,0-4.169-1.857-4.175-4.167
			l-0.006-53.336h0.006c0-2.31,1.874-4.176,4.175-4.176C205.957,10.097,207.823,11.963,207.823,14.273"/>
		<path fill="#4FBEA3" d="M255.652,38.623v4.665c0,2.304-1.871,4.176-4.173,4.176c-2.303,0-4.177-1.872-4.177-4.176v-4.665
			c0-2.308,1.874-4.174,4.177-4.174C253.781,34.449,255.652,36.314,255.652,38.623"/>
		<path fill="#4FBEA3" d="M223.759,21.883V59.98c-0.009,2.21-1.866,3.99-4.176,3.99c-2.303,0-4.168-1.78-4.177-3.99l-0.004-38.097
			h0.004c0-2.208,1.874-3.994,4.177-3.994C221.893,17.89,223.759,19.675,223.759,21.883"/>
		<path fill="#4FBEA3" d="M239.72,30.237V51.49c-0.007,2.31-1.864,4.167-4.174,4.167c-2.302,0-4.169-1.858-4.176-4.167
			l-0.005-21.253h0.005c0-2.31,1.874-4.173,4.176-4.173C237.855,26.064,239.72,27.927,239.72,30.237"/>
	</g>
</g>
</svg>
