<?xml version="1.0" encoding="utf-8"?>
<!-- Generator: Adobe Illustrator 16.2.1, SVG Export Plug-In . SVG Version: 6.00 Build 0)  -->
<!DOCTYPE svg PUBLIC "-//W3C//DTD SVG 1.1//EN" "http://www.w3.org/Graphics/SVG/1.1/DTD/svg11.dtd">
<svg version="1.1" id="Layer_1" xmlns="http://www.w3.org/2000/svg" xmlns:xlink="http://www.w3.org/1999/xlink" x="0px" y="0px"
	 width="216px" height="216px" viewBox="0 0 216 216" enable-background="new 0 0 216 216" xml:space="preserve">
<g>
	<path fill="#BABABA" d="M85.903,149.918c0-10.412-8.041-7.01-11.578-26.076c-1.465-7.91-8.57-0.127-9.928-18.184
		c0-7.195,3.877-8.984,3.877-8.984s-1.97-10.648-2.742-18.844c-0.959-10.211,5.9-36.592,42.468-36.592
		c36.567,0,43.422,26.381,42.467,36.592c-0.773,8.196-2.746,18.844-2.746,18.844s3.879,1.789,3.879,8.984
		c-1.359,18.057-8.467,10.273-9.932,18.184c-3.531,19.066-11.574,15.664-11.574,26.076c0,17.344,8.42,25.443,34.766,35.045
		c3.186,1.16,6.23,2.323,9.133,3.482c22.91-18.983,37.508-47.652,37.508-79.732c0-57.163-46.342-103.5-103.505-103.5
		C50.835,5.212,4.5,51.55,4.5,108.713c0,32.081,14.595,60.75,37.506,79.734c2.902-1.161,5.949-2.324,9.134-3.484
		C77.485,175.361,85.903,167.262,85.903,149.918z"/>
	<path fill="#FFFFFF" d="M173.992,188.445c-2.902-1.159-5.947-2.322-9.133-3.482c-26.346-9.602-34.766-17.701-34.766-35.045
		c0-10.412,8.043-7.01,11.574-26.076c1.465-7.91,8.572-0.127,9.932-18.184c0-7.195-3.879-8.984-3.879-8.984
		s1.973-10.648,2.746-18.844c0.955-10.211-5.9-36.592-42.467-36.592c-36.567,0-43.427,26.381-42.468,36.592
		c0.772,8.196,2.742,18.844,2.742,18.844s-3.877,1.789-3.877,8.984c1.357,18.057,8.463,10.273,9.928,18.184
		c3.537,19.066,11.578,15.664,11.578,26.076c0,17.344-8.418,25.443-34.764,35.045c-3.185,1.16-6.232,2.323-9.134,3.484
		c17.913,14.843,40.908,23.766,65.989,23.766C133.078,212.213,156.076,203.289,173.992,188.445z"/>
</g>
</svg>
