<svg width="22" height="22" viewBox="0 0 22 22" fill="none" xmlns="http://www.w3.org/2000/svg">
<g clip-path="url(#clip0_39_289)">
<path d="M11 13.75C12.5188 13.75 13.75 12.5188 13.75 11C13.75 9.48122 12.5188 8.25 11 8.25C9.48122 8.25 8.25 9.48122 8.25 11C8.25 12.5188 9.48122 13.75 11 13.75Z" stroke="#A1A5B7" stroke-width="2" stroke-linecap="round" stroke-linejoin="round"/>
<path d="M17.7834 13.75C17.6614 14.0265 17.625 14.3332 17.6789 14.6305C17.7328 14.9279 17.8746 15.2023 18.0859 15.4183L18.1409 15.4733C18.3114 15.6436 18.4466 15.8458 18.5389 16.0683C18.6311 16.2909 18.6786 16.5295 18.6786 16.7704C18.6786 17.0113 18.6311 17.2499 18.5389 17.4725C18.4466 17.695 18.3114 17.8972 18.1409 18.0675C17.9706 18.2379 17.7685 18.3732 17.5459 18.4654C17.3233 18.5577 17.0848 18.6052 16.8438 18.6052C16.6029 18.6052 16.3643 18.5577 16.1418 18.4654C15.9192 18.3732 15.717 18.2379 15.5467 18.0675L15.4917 18.0125C15.2757 17.8012 15.0013 17.6594 14.704 17.6055C14.4066 17.5516 14.0999 17.588 13.8234 17.71C13.5523 17.8262 13.3211 18.0191 13.1582 18.2651C12.9953 18.511 12.9079 18.7992 12.9067 19.0942V19.25C12.9067 19.7362 12.7136 20.2025 12.3698 20.5464C12.026 20.8902 11.5596 21.0833 11.0734 21.0833C10.5872 21.0833 10.1209 20.8902 9.77705 20.5464C9.43324 20.2025 9.24008 19.7362 9.24008 19.25V19.1675C9.23298 18.8641 9.13477 18.5698 8.95822 18.323C8.78166 18.0761 8.53492 17.8881 8.25008 17.7833C7.9736 17.6613 7.6669 17.6249 7.36954 17.6788C7.07218 17.7327 6.79779 17.8745 6.58175 18.0858L6.52675 18.1408C6.35648 18.3113 6.15428 18.4465 5.93172 18.5388C5.70916 18.631 5.47059 18.6785 5.22966 18.6785C4.98874 18.6785 4.75017 18.631 4.52761 18.5388C4.30504 18.4465 4.10285 18.3113 3.93258 18.1408C3.76212 17.9706 3.6269 17.7684 3.53464 17.5458C3.44238 17.3232 3.39489 17.0847 3.39489 16.8437C3.39489 16.6028 3.44238 16.3642 3.53464 16.1417C3.6269 15.9191 3.76212 15.7169 3.93258 15.5467L3.98758 15.4917C4.19891 15.2756 4.34067 15.0012 4.39459 14.7039C4.4485 14.4065 4.4121 14.0998 4.29008 13.8233C4.17388 13.5522 3.98094 13.321 3.73501 13.1581C3.48908 12.9952 3.20089 12.9078 2.90591 12.9067H2.75008C2.26385 12.9067 1.79754 12.7135 1.45372 12.3697C1.1099 12.0259 0.916748 11.5596 0.916748 11.0733C0.916748 10.5871 1.1099 10.1208 1.45372 9.77696C1.79754 9.43314 2.26385 9.23999 2.75008 9.23999H2.83258C3.13599 9.23289 3.43025 9.13468 3.67711 8.95812C3.92396 8.78157 4.11199 8.53483 4.21675 8.24999C4.33877 7.97351 4.37517 7.66681 4.32125 7.36945C4.26733 7.07209 4.12557 6.7977 3.91425 6.58166L3.85925 6.52666C3.68879 6.35639 3.55357 6.15419 3.46131 5.93163C3.36904 5.70907 3.32156 5.4705 3.32156 5.22957C3.32156 4.98864 3.36904 4.75008 3.46131 4.52752C3.55357 4.30495 3.68879 4.10276 3.85925 3.93249C4.02952 3.76203 4.23171 3.62681 4.45427 3.53455C4.67684 3.44229 4.9154 3.3948 5.15633 3.3948C5.39726 3.3948 5.63583 3.44229 5.85839 3.53455C6.08095 3.62681 6.28315 3.76203 6.45341 3.93249L6.50841 3.98749C6.72445 4.19882 6.99885 4.34058 7.29621 4.39449C7.59357 4.44841 7.90027 4.41201 8.17675 4.28999H8.25008C8.5212 4.17379 8.75243 3.98085 8.9153 3.73492C9.07817 3.48898 9.16557 3.20079 9.16675 2.90582V2.74999C9.16675 2.26376 9.3599 1.79744 9.70372 1.45363C10.0475 1.10981 10.5139 0.916656 11.0001 0.916656C11.4863 0.916656 11.9526 1.10981 12.2964 1.45363C12.6403 1.79744 12.8334 2.26376 12.8334 2.74999V2.83249C12.8346 3.12746 12.922 3.41565 13.0849 3.66158C13.2477 3.90752 13.479 4.10046 13.7501 4.21666C14.0266 4.33868 14.3333 4.37508 14.6306 4.32116C14.928 4.26724 15.2024 4.12548 15.4184 3.91416L15.4734 3.85916C15.6437 3.6887 15.8459 3.55347 16.0684 3.46121C16.291 3.36895 16.5296 3.32146 16.7705 3.32146C17.0114 3.32146 17.25 3.36895 17.4726 3.46121C17.6951 3.55347 17.8973 3.6887 18.0676 3.85916C18.238 4.02942 18.3733 4.23162 18.4655 4.45418C18.5578 4.67675 18.6053 4.91531 18.6053 5.15624C18.6053 5.39717 18.5578 5.63573 18.4655 5.8583C18.3733 6.08086 18.238 6.28306 18.0676 6.45332L18.0126 6.50832C17.8013 6.72436 17.6595 6.99875 17.6056 7.29612C17.5517 7.59348 17.5881 7.90017 17.7101 8.17666V8.24999C17.8263 8.52111 18.0192 8.75234 18.2652 8.91521C18.5111 9.07808 18.7993 9.16548 19.0942 9.16666H19.2501C19.7363 9.16666 20.2026 9.35981 20.5464 9.70363C20.8903 10.0474 21.0834 10.5138 21.0834 11C21.0834 11.4862 20.8903 11.9525 20.5464 12.2964C20.2026 12.6402 19.7363 12.8333 19.2501 12.8333H19.1676C18.8726 12.8345 18.5844 12.9219 18.3385 13.0848C18.0926 13.2476 17.8996 13.4789 17.7834 13.75V13.75Z" stroke="#A1A5B7" stroke-width="2" stroke-linecap="round" stroke-linejoin="round"/>
</g>
<defs>
<clipPath id="clip0_39_289">
<rect width="22" height="22" fill="white"/>
</clipPath>
</defs>
</svg>
