<svg xmlns="http://www.w3.org/2000/svg" xmlns:xlink="http://www.w3.org/1999/xlink" width="24" height="16" viewBox="0 0 24 16"><defs><path id="4uwca" d="M248 426a2 2 0 0 1 2-2h20a2 2 0 0 1 2 2v12a2 2 0 0 1-2 2h-20a2 2 0 0 1-2-2z"/><path id="4uwcb" d="M257.333 434.667v-5.334h5.334v5.334zm2.672-1.067c.947 0 1.715-.716 1.715-1.6 0-.884-.768-1.6-1.715-1.6-.947 0-1.715.716-1.715 1.6 0 .884.768 1.6 1.715 1.6z"/><path id="4uwce" d="M248 429.33V424h24v5.33z"/><path id="4uwcf" d="M248 440v-5.33h24V440z"/><path id="4uwcg" d="M258.29 432c0-.884.768-1.6 1.715-1.6.947 0 1.715.716 1.715 1.6 0 .884-.768 1.6-1.715 1.6-.947 0-1.715-.716-1.715-1.6z"/><path id="4uwci" d="M259.43 432.005c0-.295.255-.535.57-.535.315 0 .57.24.57.535 0 .295-.255.535-.57.535-.315 0-.57-.24-.57-.535z"/><clipPath id="4uwcc"><use fill="#fff" xlink:href="#4uwca"/></clipPath><clipPath id="4uwch"><use fill="#fff" xlink:href="#4uwcb"/></clipPath><clipPath id="4uwcd"><use xlink:href="#4uwca"/></clipPath></defs><g><g transform="translate(-248 -424)"><g><use fill="#fff" xlink:href="#4uwca"/><use fill="#fff" fill-opacity="0" stroke="#f5f8fabf" stroke-miterlimit="50" clip-path="url(&quot;#4uwcc&quot;)" xlink:href="#4uwca"/></g><g clip-path="url(#4uwcd)"><use fill="#ffa44a" xlink:href="#4uwce"/></g><g clip-path="url(#4uwcd)"><use fill="#1a9f0b" xlink:href="#4uwcf"/></g><g clip-path="url(#4uwcd)"><use fill="#181a93" fill-opacity=".15" xlink:href="#4uwcg"/><use fill="#fff" fill-opacity="0" stroke="#181a93" stroke-miterlimit="50" stroke-width="1.33" clip-path="url(&quot;#4uwch&quot;)" xlink:href="#4uwcg"/></g><g clip-path="url(#4uwcd)"><use fill="#181a93" xlink:href="#4uwci"/></g></g></g></svg>