<svg xmlns="http://www.w3.org/2000/svg" xmlns:xlink="http://www.w3.org/1999/xlink" width="24" height="16" viewBox="0 0 24 16"><defs><path id="kawva" d="M249.14 345.605c0-.295.255-.535.57-.535.315 0 .57.24.57.535 0 .295-.255.535-.57.535-.315 0-.57-.24-.57-.535zm2.29 0c0-.295.255-.535.57-.535.315 0 .57.24.57.535 0 .295-.255.535-.57.535-.315 0-.57-.24-.57-.535zm2.28 0c0-.295.255-.535.57-.535.315 0 .57.24.57.535 0 .295-.255.535-.57.535-.315 0-.57-.24-.57-.535zm2.29 0c0-.295.255-.535.57-.535.315 0 .57.24.57.535 0 .295-.255.535-.57.535-.315 0-.57-.24-.57-.535zm-5.72 1.065c0-.293.257-.53.575-.53.318 0 .575.237.575.53 0 .293-.257.53-.575.53-.318 0-.575-.237-.575-.53zm2.29 0c0-.293.255-.53.57-.53.315 0 .57.237.57.53 0 .293-.255.53-.57.53-.315 0-.57-.237-.57-.53zm2.28 0c0-.293.257-.53.575-.53.318 0 .575.237.575.53 0 .293-.257.53-.575.53-.318 0-.575-.237-.575-.53zm1.15 1.065c0-.295.255-.535.57-.535.315 0 .57.24.57.535 0 .295-.255.535-.57.535-.315 0-.57-.24-.57-.535zm-2.29 0c0-.295.255-.535.57-.535.315 0 .57.24.57.535 0 .295-.255.535-.57.535-.315 0-.57-.24-.57-.535zm-2.28 0c0-.295.255-.535.57-.535.315 0 .57.24.57.535 0 .295-.255.535-.57.535-.315 0-.57-.24-.57-.535zm-2.29 0c0-.295.255-.535.57-.535.315 0 .57.24.57.535 0 .295-.255.535-.57.535-.315 0-.57-.24-.57-.535zm1.14 1.07c0-.295.257-.535.575-.535.318 0 .575.24.575.535 0 .295-.257.535-.575.535-.318 0-.575-.24-.575-.535zm2.29 0c0-.295.255-.535.57-.535.315 0 .57.24.57.535 0 .295-.255.535-.57.535-.315 0-.57-.24-.57-.535zm2.28 0c0-.295.257-.535.575-.535.318 0 .575.24.575.535 0 .295-.257.535-.575.535-.318 0-.575-.24-.575-.535zm1.15 1.065c0-.293.255-.53.57-.53.315 0 .57.237.57.53 0 .293-.255.53-.57.53-.315 0-.57-.237-.57-.53zm-2.29 0c0-.293.255-.53.57-.53.315 0 .57.237.57.53 0 .293-.255.53-.57.53-.315 0-.57-.237-.57-.53zm-2.28 0c0-.293.255-.53.57-.53.315 0 .57.237.57.53 0 .293-.255.53-.57.53-.315 0-.57-.237-.57-.53zm-2.29 0c0-.293.255-.53.57-.53.315 0 .57.237.57.53 0 .293-.255.53-.57.53-.315 0-.57-.237-.57-.53z"/><path id="kawvb" d="M248 346a2 2 0 0 1 2-2h20a2 2 0 0 1 2 2v12a2 2 0 0 1-2 2h-20a2 2 0 0 1-2-2z"/><path id="kawvd" d="M248 345.07V344h24v1.07zm0 2.13v-1.07h24v1.07zm0 2.13v-1.06h24v1.06zm0 2.14v-1.07h24v1.07zm0 2.13v-1.07h24v1.07zm0 2.13v-1.06h24v1.06zm0 2.14v-1.07h24v1.07zm0 2.13v-1.07h24V360z"/><path id="kawve" d="M248 351.47V344h10.29v7.47z"/><mask id="kawvg" width="2" height="2" x="-1" y="-1"><path fill="#fff" d="M249 345h9v6h-9z"/><use xlink:href="#kawva"/></mask><filter id="kawvf" width="29" height="27" x="239" y="335" filterUnits="userSpaceOnUse"><feOffset dy="1" in="SourceGraphic" result="FeOffset1049Out"/><feGaussianBlur in="FeOffset1049Out" result="FeGaussianBlur1050Out" stdDeviation="0 0"/></filter><linearGradient id="kawvh" x1="253.14" x2="253.14" y1="345.07" y2="350.4" gradientUnits="userSpaceOnUse"><stop offset="0" stop-color="#fff"/><stop offset="1" stop-color="#f0f0f0"/></linearGradient><clipPath id="kawvc"><use xlink:href="#kawvb"/></clipPath></defs><g><g transform="translate(-248 -344)"><g><use fill="#fff" xlink:href="#kawvb"/></g><g clip-path="url(#kawvc)"><use fill="#d02f44" xlink:href="#kawvd"/></g><g clip-path="url(#kawvc)"><use fill="#46467f" xlink:href="#kawve"/></g><g clip-path="url(#kawvc)"><g filter="url(#kawvf)"><use fill="none" stroke-opacity=".06" stroke-width="0" mask="url(&quot;#kawvg&quot;)" xlink:href="#kawva"/><use fill-opacity=".06" xlink:href="#kawva"/></g><use fill="url(#kawvh)" xlink:href="#kawva"/></g></g></g></svg>