<svg xmlns="http://www.w3.org/2000/svg" xmlns:xlink="http://www.w3.org/1999/xlink" width="24" height="16" viewBox="0 0 24 16"><defs><path id="rjs7a" d="M248 586a2 2 0 0 1 2-2h20a2 2 0 0 1 2 2v12a2 2 0 0 1-2 2h-20a2 2 0 0 1-2-2z"/><path id="rjs7c" d="M248 600v-16h24v16z"/><path id="rjs7d" d="M253.71 591.995c0-3.24 2.814-5.865 6.285-5.865s6.285 2.626 6.285 5.865c0 3.24-2.814 5.865-6.285 5.865s-6.285-2.626-6.285-5.865zm6.285 4.804c.112 0 .223-.003.334-.01.784-.868 1.287-2.46 1.37-4.264h-3.406c.083 1.803.585 3.397 1.37 4.264.11.007.22.01.332.01zm-5.114-4.274c.21 1.796 1.481 3.294 3.216 3.937-.557-1.06-.883-2.444-.945-3.937zm10.228 0h-2.27c-.062 1.493-.387 2.876-.944 3.936 1.734-.643 3.004-2.14 3.214-3.936zm-5.114-5.324c-.114 0-.227.003-.339.01-.78.869-1.28 2.457-1.363 4.254h3.405c-.082-1.797-.583-3.385-1.363-4.254a5.598 5.598 0 0 0-.34-.01zm-5.112 4.264h2.27c.062-1.488.385-2.866.94-3.925-1.73.642-2.997 2.135-3.21 3.925zm10.224 0c-.212-1.79-1.48-3.282-3.208-3.925.554 1.06.878 2.437.94 3.925z"/><clipPath id="rjs7b"><use xlink:href="#rjs7a"/></clipPath></defs><g><g transform="translate(-248 -584)"><g><use fill="#fff" xlink:href="#rjs7a"/></g><g clip-path="url(#rjs7b)"><use fill="#19bfbf" xlink:href="#rjs7c"/></g><g clip-path="url(#rjs7b)"><use fill="#fff" xlink:href="#rjs7d"/></g></g></g></svg>