<svg xmlns="http://www.w3.org/2000/svg" xmlns:xlink="http://www.w3.org/1999/xlink" width="70" height="26" viewBox="0 0 70 26"><defs><path id="n06wa" d="M945.004 395.613c0-2.24-1.728-2.664-3.266-2.664h-6.193l-2.465 2.65-2.385-2.65h-7.794v8.088h7.676l2.48-2.678 2.387 2.678h3.767v-2.713h2.418c1.694 0 3.375-.464 3.375-2.71zm-10.694 1.394l2.957-3.19v6.484zm4.908-.326v-2.06h2.528c.7 0 1.186.285 1.186.992 0 .7-.463 1.068-1.208 1.068zm15.587-3.732v8.088h6.461v-1.679l-4.533-.007v-1.61h4.422v-1.65h-4.422v-1.47h4.533v-1.672zm-2.458 4.33c.51-.203 1.373-.862 1.373-2.152 0-.923-.384-1.428-.996-1.796-.635-.339-1.35-.382-2.33-.382h-4.47v8.088h1.946v-2.954h2.07c.706 0 1.137.069 1.42.359.36.376.313 1.096.313 1.583v1.012h1.944v-1.604c-.008-.713-.048-1.081-.321-1.476-.165-.236-.518-.52-.949-.679zm-2.126-.84h-2.349v-1.817h2.381c.344 0 .689.007.923.146.25.13.4.381.4.727s-.15.625-.4.777c-.259.153-.579.166-.955.166zm18.45.332c-.439-.443-1.16-.625-2.211-.65l-1.042-.028c-.33 0-.55-.021-.754-.092a.62.62 0 0 1-.424-.603c0-.256.08-.45.291-.581.195-.133.424-.147.776-.147h3.552v-1.72h-3.882c-2.03 0-2.768 1.234-2.768 2.407 0 2.56 2.267 2.442 4.078 2.503.337 0 .542.056.69.18.133.112.236.299.236.535 0 .22-.096.402-.229.527-.163.152-.423.2-.79.2h-3.757v1.735h3.771c1.953 0 3.042-.813 3.042-2.552 0-.833-.202-1.324-.58-1.714zm7.733 3.231v2.102c-.776.374-1.797.52-2.843.52h-5.023v-.722c-.582.466-1.632.723-2.638.723h-15.835v-2.609c0-.32-.032-.332-.353-.332h-.251v2.94h-5.213v-3.045c-.873.376-1.862.41-2.7.397h-.622v2.655l-6.32-.006-1.554-1.754-1.649 1.754H921.15V391.34h10.45l1.499 1.727 1.6-1.727h6.996c.809 0 2.136.084 2.732.66v-.66h6.25c.588 0 1.86.118 2.615.66v-.66h9.476v.66c.471-.45 1.467-.66 2.316-.66h5.306v.66c.557-.401 1.344-.66 2.426-.66h3.588v1.61h-3.861c-2.035 0-2.782 1.234-2.782 2.407 0 2.56 2.271 2.442 4.091 2.503.338 0 .543.056.683.18.143.112.237.299.237.535a.71.71 0 0 1-.23.527c-.155.152-.414.2-.784.2h-3.728v1.735h3.744c1.242 0 2.16-.348 2.63-1.035zm0-3.03c-.054-.07-.1-.14-.18-.201-.43-.443-1.136-.625-2.194-.65l-1.049-.029c-.322 0-.541-.02-.745-.092a.61.61 0 0 1-.423-.602c0-.257.078-.451.282-.582.197-.133.431-.146.783-.146h3.526z"/><path id="n06wb" d="M907.44 388.697v-5.915l2.348-5.362h5.055l.651 1.332v-1.332h5.928l1.296 2.913 1.263-2.913h18.82c.855 0 1.624.159 2.189.658v-.658h5.151v.658c.887-.484 1.986-.658 3.235-.658h7.465l.692 1.332v-1.332h5.526l.755 1.332v-1.332h5.385v11.277h-5.442l-1.028-1.706v1.706h-6.79l-.738-1.796h-1.672l-.755 1.796h-3.524c-1.382 0-2.433-.325-3.109-.686v.686h-8.376v-2.559c0-.361-.065-.381-.284-.389h-.313l.007 2.948H924.98v-1.393l-.581 1.399h-3.383l-.582-1.379v1.373h-6.517l-.745-1.796H911.5l-.747 1.796zm64.031-1.59v-8.082h-1.985v5.63l-3.408-5.63h-2.952v7.645l-3.282-7.645h-2.904l-2.732 6.357h-.871c-.51 0-1.053-.098-1.351-.417-.36-.408-.533-1.033-.533-1.899 0-.847.227-1.49.557-1.83.385-.375.784-.48 1.492-.48h1.837v-1.731h-1.877c-1.335 0-2.317.297-2.944.942-.833.866-1.045 1.962-1.045 3.16 0 1.47.355 2.4 1.036 3.087.676.686 1.869.894 2.811.894h2.268l.732-1.803h4.027l.755 1.803h3.948v-6.067l3.674 6.067zm-22.957 0v-8.082h-1.968v8.083zm-3.092-5.905c0-.902-.368-1.43-.981-1.79-.627-.361-1.357-.387-2.348-.387h-4.458v8.083h1.938v-2.94h2.081c.698 0 1.13.061 1.413.346.353.388.306 1.088.306 1.574l.007 1.02h1.955v-1.588c0-.722-.047-1.081-.32-1.483-.173-.236-.535-.52-.96-.681.504-.2 1.367-.866 1.367-2.154zm-9.141 5.906v-1.672h-4.53v-1.614h4.421v-1.657h-4.421v-1.457h4.53v-1.683h-6.466v8.083zm-7.91 0v-8.083h-3.228l-2.33 5.483-2.538-5.483h-3.164v7.653l-3.297-7.653h-2.88l-3.471 8.083h2.105l.753-1.803h4.036l.745 1.803h3.943v-6.336l2.818 6.336h1.702l2.81-6.33.008 6.33zm31.316-3.493h-2.676l1.334-3.216zm-17.753-1.127h-2.361v-1.778h2.393c.339 0 .692.015.922.144.252.117.408.365.408.708 0 .35-.148.631-.4.76-.268.16-.584.166-.962.166zm-30.923 1.127l1.32-3.216 1.326 3.216z"/></defs><g><g transform="translate(-907 -377)"><g><use fill="#fff" xlink:href="#n06wa"/></g><g><use fill="#fff" xlink:href="#n06wb"/></g></g></g></svg>