<?xml version="1.0" encoding="utf-8"?>
<!-- Generator: Adobe Illustrator 22.0.0, SVG Export Plug-In . SVG Version: 6.00 Build 0)  -->
<svg version="1.1" id="Layer_1" xmlns="http://www.w3.org/2000/svg" xmlns:xlink="http://www.w3.org/1999/xlink" x="0px" y="0px"
	 viewBox="0 0 20.8 17.8" style="enable-background:new 0 0 20.8 17.8;" xml:space="preserve">
<style type="text/css">
	.st0{fill:#E9E9E9;}
</style>
<g id="account" transform="translate(-2.25 -4.5)">
	<path id="Path_6" class="st0" d="M7.5,11.1h7v1.3h-7V11.1z M7.5,14.3h8.3v1.3H7.5V14.3z"/>
	<path id="Path_7" class="st0" d="M20.3,4.8H5C4.3,4.8,3.7,5.3,3.7,6l0,0v12.7C3.7,19.5,4.3,20,5,20h15.3c0.7,0,1.3-0.6,1.3-1.3V6
		C21.5,5.3,21,4.8,20.3,4.8z M20.3,6v1.3H5V6H20.3z M5,18.8V8.6h15.3v10.2H5z"/>
</g>
</svg>
