<?xml version="1.0" encoding="utf-8"?>
<!-- Generator: Adobe Illustrator 22.0.0, SVG Export Plug-In . SVG Version: 6.00 Build 0)  -->
<svg version="1.1" id="Layer_1" xmlns="http://www.w3.org/2000/svg" xmlns:xlink="http://www.w3.org/1999/xlink" x="0px" y="0px"
	 viewBox="0 0 16 16" style="enable-background:new 0 0 16 16;" xml:space="preserve">
<style type="text/css">
	.st0{clip-path:url(#SVGID_3_);}
	.st1{clip-path:url(#SVGID_4_);}
	.st2{fill:#FFFFFF;}
</style>
<g>
	<g>
		<defs>
			<polygon id="SVGID_1_" points="-231,-299 -230,-299 -231,-298 			"/>
		</defs>
		<defs>
			<polygon id="SVGID_2_" points="-233,-301 -234,-301 -233,-302 			"/>
		</defs>
		<clipPath id="SVGID_3_">
			<use xlink:href="#SVGID_1_"  style="overflow:visible;"/>
		</clipPath>
		<clipPath id="SVGID_4_" class="st0">
			<use xlink:href="#SVGID_2_"  style="overflow:visible;"/>
		</clipPath>
		<g transform="translate(-232 -300)" class="st1">
			<g>
				<path id="qq9ha" class="st2" d="M232,308c0-4.4,3.6-8,8-8s8,3.6,8,8s-3.6,8-8,8S232,312.4,232,308z M240,314.5
					c0.1,0,0.3,0,0.4,0c1-1.2,1.6-3.4,1.7-5.8h-4.3c0.1,2.5,0.7,4.6,1.7,5.8C239.7,314.5,239.9,314.5,240,314.5L240,314.5z
					 M233.5,308.7c0.3,2.4,1.8,4.5,4.1,5.4c-0.7-1.4-1.1-3.3-1.2-5.4H233.5z M246.5,308.7h-2.9c-0.1,2-0.5,3.9-1.2,5.4
					C244.7,313.2,246.2,311.1,246.5,308.7L246.5,308.7z M240,301.4c-0.1,0-0.3,0-0.4,0c-1,1.2-1.6,3.4-1.8,5.8h4.3
					c-0.1-2.5-0.8-4.6-1.8-5.8C240.3,301.5,240.1,301.4,240,301.4z M233.5,307.3h2.9c0.1-2,0.5-3.9,1.2-5.4
					C235.3,302.8,233.8,304.9,233.5,307.3z M246.5,307.3c-0.3-2.4-1.8-4.5-4.1-5.4c0.7,1.4,1.1,3.3,1.2,5.4H246.5z"/>
			</g>
		</g>
	</g>
</g>
<g>
	<path class="st2" d="M7.7,5C7,4.8,6.6,4.3,6.8,3.8c0.1-0.6,0.7-0.9,1.4-0.9c0.7,0,1.2,0.4,1.4,0.9c0.1,0.5-0.2,1.1-1.1,1.3
		c0.2,0.4,0.5,0.8,0.7,1.2c1.8,3,3.5,6,5.3,9c0.2,0.3,0,0.5-0.4,0.6c-0.1,0-0.2,0-0.3-0.1c-1-0.5-1.9-0.9-2.9-1.4
		c-0.1,0-0.1,0-0.2,0c-0.7,0.5-1.5,1-2.2,1.5C8.2,16,8,16,7.7,15.9c-0.8-0.5-1.5-1-2.3-1.5c-0.1,0-0.1,0-0.2,0c-1,0.5-2,0.9-2.9,1.4
		c-0.2,0.1-0.4,0.1-0.6,0c-0.2-0.1-0.2-0.3-0.1-0.5c0.5-0.9,1.1-1.8,1.6-2.7c1.4-2.4,2.9-4.9,4.3-7.3C7.6,5.1,7.7,5.1,7.7,5z
		 M6.4,11.6c-0.1,0-0.1,0.1-0.2,0.1c0,0-0.1,0-0.1-0.1c-0.7,0.4-1.5,0.8-2.2,1.1c0,0,0.1,0,0.1,0c0.4,0.3,0.9,0.6,1.3,0.9
		c0.1,0,0.1,0,0.2,0c0.7-0.3,1.3-0.6,2-0.9c0,0,0.1,0,0.1,0c-0.4-0.3-0.9-0.7-1.3-1C6.3,11.7,6.4,11.6,6.4,11.6
		c0.1-0.1,0.1-0.1,0.2-0.2C7,11.7,7.4,12,7.8,12.3c0-0.5,0-1,0-1.5c0,0-0.1,0-0.1,0c-0.3,0.2-0.6,0.3-1,0.5
		C6.6,11.4,6.5,11.5,6.4,11.6z M10.7,13.8c0.5-0.3,1-0.6,1.5-1c-0.7-0.4-1.5-0.8-2.2-1.1c-0.5,0.4-1,0.7-1.4,1.1
		C9.3,13.1,10,13.4,10.7,13.8z M7.7,10.3C7.4,9.9,7.1,9.5,6.8,9.2c-0.5,0.4-1,0.8-1.6,1.2c0.3,0.2,0.6,0.5,0.9,0.7
		C6.7,10.8,7.2,10.6,7.7,10.3z M8.5,10.3C8.5,10.3,8.5,10.3,8.5,10.3c0.5,0.3,1,0.5,1.4,0.8c0.1,0,0.1,0,0.1,0
		c0.3-0.2,0.5-0.4,0.8-0.6c0,0,0,0,0.1-0.1c-0.5-0.4-1-0.8-1.5-1.2C9,9.6,8.7,9.9,8.5,10.3z M7.8,13.2c-0.6,0.3-1.2,0.6-1.9,0.9
		c0.6,0.4,1.2,0.8,1.9,1.2C7.8,14.6,7.8,13.9,7.8,13.2z M8.3,15.3c0.6-0.4,1.2-0.8,1.9-1.2c-0.6-0.3-1.2-0.6-1.9-0.9
		C8.3,13.9,8.3,14.6,8.3,15.3z M2.3,15.2C2.4,15.2,2.4,15.2,2.3,15.2c0.9-0.4,1.7-0.8,2.6-1.2c-0.4-0.3-0.9-0.6-1.3-0.9
		c0,0,0,0,0-0.1c0,0,0,0,0,0C3.2,13.8,2.8,14.5,2.3,15.2z M11.2,14c0.9,0.4,1.7,0.8,2.5,1.2c0,0,0,0,0,0c-0.4-0.7-0.8-1.4-1.2-2.1
		C12.1,13.4,11.7,13.7,11.2,14z M7.8,6C7.8,6,7.7,6,7.8,6C7.4,6.7,7,7.3,6.6,7.9c0,0,0,0,0,0.1C6.7,8.1,6.8,8.3,7,8.5
		c0,0,0.1,0,0.1-0.1c0.2-0.2,0.4-0.3,0.7-0.5c0.1,0,0.1-0.1,0.1-0.1C7.8,7.2,7.8,6.7,7.8,6C7.8,6.1,7.8,6.1,7.8,6z M8.4,6
		C8.4,6,8.4,6,8.4,6C8.4,6,8.4,6,8.4,6c0,0.6,0,1.2,0,1.8c0,0,0,0.1,0.1,0.1C8.6,8,8.7,8.1,8.9,8.2C9,8.3,9.1,8.4,9.2,8.5
		c0.1-0.1,0.2-0.3,0.3-0.4c0-0.1,0-0.1,0-0.2c-0.3-0.5-0.6-1-0.8-1.4C8.6,6.3,8.5,6.2,8.4,6z M9.5,11.4c-0.4-0.2-0.8-0.4-1.1-0.6
		c0,0.5,0,1,0,1.5C8.7,12,9.1,11.7,9.5,11.4z M5,10.8c-0.3,0.5-0.5,0.9-0.8,1.4c0,0,0,0,0,0c0.5-0.3,1-0.5,1.5-0.8
		C5.5,11.1,5.2,11,5,10.8z M10.4,11.4c0.5,0.3,1,0.5,1.5,0.8c0,0,0,0,0,0c-0.3-0.4-0.5-0.9-0.8-1.3C10.9,11,10.7,11.2,10.4,11.4z
		 M7.8,9.5C7.8,9.5,7.8,9.5,7.8,9.5c0-0.3,0-0.7,0-1C7.6,8.6,7.4,8.7,7.3,8.8c0,0,0,0,0,0.1C7.4,9.1,7.6,9.3,7.8,9.5z M8.3,9.5
		C8.4,9.5,8.4,9.5,8.3,9.5c0.2-0.2,0.4-0.4,0.5-0.7C8.7,8.7,8.5,8.6,8.3,8.5C8.3,8.8,8.3,9.2,8.3,9.5z M6.3,8.5C6.1,8.8,6,9,5.8,9.3
		c0,0,0,0,0,0C6.1,9.2,6.3,9,6.6,8.8C6.5,8.7,6.4,8.6,6.3,8.5z M10.3,9.3C10.3,9.3,10.3,9.3,10.3,9.3C10.1,9,10,8.8,9.8,8.5
		C9.7,8.6,9.7,8.7,9.6,8.7c0,0,0,0.1,0,0.1C9.8,9,10,9.1,10.3,9.3C10.2,9.3,10.3,9.3,10.3,9.3z"/>
	<path class="st2" d="M15.7,4.3c0,1.9-0.6,3.3-1.7,4.6c-0.2,0.2-0.4,0.2-0.5,0c-0.2-0.2-0.2-0.4,0-0.6c0.5-0.6,1-1.2,1.2-2
		c0.3-0.7,0.4-1.4,0.3-2.2c-0.1-1.3-0.6-2.5-1.5-3.5c-0.1-0.1-0.2-0.3-0.1-0.4C13.4,0.1,13.5,0,13.7,0c0.1,0,0.2,0.1,0.3,0.1
		C14.8,1,15.3,2,15.6,3.2C15.7,3.6,15.7,4.1,15.7,4.3z"/>
	<path class="st2" d="M2.3,9C2.2,9,2.1,8.9,2.1,8.9C1.2,8,0.7,7,0.5,5.8C0.3,5.2,0.3,4.7,0.3,4.2c0.1-1.4,0.6-2.6,1.4-3.7
		C1.9,0.4,2,0.3,2.1,0.1C2.2,0,2.4,0,2.6,0.1c0.2,0.2,0.2,0.4,0,0.6C2.5,0.9,2.3,1,2.2,1.2C1.6,2,1.2,2.8,1.1,3.8
		C0.9,5.5,1.4,6.9,2.5,8.2c0.1,0.1,0.1,0.1,0.2,0.2c0.1,0.1,0.1,0.3,0.1,0.4C2.6,8.9,2.5,9,2.3,9z"/>
	<path class="st2" d="M14,4.5c0,1.2-0.4,2.2-1.2,3.1c-0.2,0.2-0.4,0.2-0.5,0C12,7.5,12,7.3,12.1,7.1c0.1-0.1,0.2-0.2,0.3-0.4
		C13,6,13.2,5.2,13.2,4.3c-0.1-0.9-0.4-1.7-1-2.3C12,1.8,12,1.6,12.1,1.4c0.2-0.2,0.4-0.2,0.6,0c0.7,0.7,1.1,1.6,1.2,2.5
		c0,0.1,0,0.2,0,0.3C14,4.3,14,4.4,14,4.5z"/>
	<path class="st2" d="M2.1,4.6c0-1.3,0.4-2.3,1.2-3.2c0.2-0.2,0.4-0.2,0.5,0C4,1.5,4,1.7,3.9,1.9C3.7,2.1,3.5,2.4,3.4,2.6
		C2.9,3.3,2.8,4,2.8,4.8c0.1,0.8,0.4,1.6,1,2.2C4,7.2,4,7.4,3.9,7.6c-0.2,0.2-0.4,0.3-0.6,0c-0.6-0.7-1-1.5-1.2-2.5
		C2.1,4.9,2.1,4.7,2.1,4.6z"/>
	<path class="st2" d="M12.2,4.5c0,0.7-0.3,1.3-0.7,1.9c-0.2,0.2-0.4,0.2-0.5,0c-0.2-0.2-0.2-0.4,0-0.6c0.2-0.2,0.4-0.5,0.5-0.8
		c0.2-0.6,0-1.2-0.4-1.7c0,0-0.1-0.1-0.1-0.1c-0.1-0.2-0.1-0.4,0.1-0.6c0.2-0.1,0.4-0.1,0.5,0.1c0.4,0.5,0.7,1,0.7,1.7
		C12.2,4.4,12.2,4.4,12.2,4.5z"/>
	<path class="st2" d="M3.8,4.6c0.2,0,0.4,0,0.6,0c0,0,0,0,0,0C4.2,4.5,4,4.5,3.8,4.6c0-0.3,0-0.6,0.1-0.8C4,3.3,4.3,3,4.5,2.7
		c0.2-0.2,0.4-0.2,0.5-0.1C5.3,2.7,5.3,3,5.1,3.2C4.9,3.4,4.7,3.7,4.7,4c-0.2,0.7,0,1.3,0.5,1.8c0.2,0.3,0.1,0.6-0.2,0.7
		c-0.1,0-0.2,0-0.3-0.1C4.2,6,3.9,5.4,3.8,4.8C3.8,4.7,3.8,4.7,3.8,4.6C3.8,4.6,3.8,4.6,3.8,4.6z"/>
</g>
</svg>
