<?xml version="1.0" encoding="utf-8"?>
<!-- Generator: Adobe Illustrator 26.0.1, SVG Export Plug-In . SVG Version: 6.00 Build 0)  -->
<svg version="1.1" id="Layer_1" xmlns="http://www.w3.org/2000/svg" xmlns:xlink="http://www.w3.org/1999/xlink" x="0px" y="0px"
	 viewBox="0 0 25 30" style="enable-background:new 0 0 25 30;" xml:space="preserve">
<style type="text/css">
	.st0{fill:#fff;fill-opacity:0.6;}
</style>
<g>
	<g transform="translate(-726 -576)">
		<g>
			<g>
				<path id="_x31_ry3a" class="st0" d="M726,579c0-1.7,1.3-3,3-3s3,1.3,3,3v23.2c0,1.7-1.3,3-3,3s-3-1.3-3-3V579z"/>
			</g>
		</g>
		<g>
			<g>
				<path id="_x31_ry3b" class="st0" d="M736.5,584.6c0-1.7,1.3-3,3-3s3,1.3,3,3v12.6c0,1.7-1.3,3-3,3s-3-1.3-3-3V584.6z"/>
			</g>
		</g>
		<g>
			<g>
				<path id="_x31_ry3c" class="st0" d="M745.6,589.3c0-1.5,1.2-2.8,2.8-2.8s2.8,1.2,2.8,2.8v3.6c0,1.5-1.2,2.8-2.8,2.8
					s-2.8-1.2-2.8-2.8V589.3z"/>
			</g>
		</g>
	</g>
</g>
</svg>
