<svg xmlns="http://www.w3.org/2000/svg" xmlns:xlink="http://www.w3.org/1999/xlink" width="67" height="39" viewBox="0 0 67 39"><defs><path id="vqi4a" d="M690.13 383.485c0 10.778-8.96 19.515-20.014 19.515-11.055 0-20.016-8.737-20.016-19.515s8.961-19.515 20.016-19.515c11.054 0 20.014 8.737 20.014 19.515"/><path id="vqi4b" d="M696.311 363.97c-5.174 0-9.887 1.913-13.44 5.051-.724.64-1.398 1.33-2.021 2.066h4.045a20.046 20.046 0 0 1 1.526 2.067h-7.098c-.425.664-.81 1.353-1.154 2.067h9.405c.321.669.604 1.358.848 2.066h-11.1a19.04 19.04 0 0 0-.582 2.066h12.263a19.18 19.18 0 0 1-.581 10.332h-11.1c.243.707.526 1.397.847 2.067h9.405a19.399 19.399 0 0 1-1.155 2.066h-7.096c.463.72.973 1.41 1.527 2.065h4.043a19.727 19.727 0 0 1-2.022 2.067c3.553 3.138 8.266 5.05 13.44 5.05 11.057 0 20.02-8.737 20.02-19.515 0-10.777-8.963-19.515-20.02-19.515"/><path id="vqi4c" d="M667.48 389.21h-2.018l.046-.834c-.615.658-1.437.973-2.553.973-1.32 0-2.225-.896-2.225-2.199 0-1.96 1.574-3.103 4.276-3.103.277 0 .631.022.994.062.075-.266.095-.379.095-.522 0-.533-.424-.733-1.562-.733a9.225 9.225 0 0 0-2.579.363l.338-1.81c1.213-.311 2.014-.427 2.915-.427 2.092 0 3.2.817 3.198 2.36.004.415-.075.924-.197 1.596-.212 1.165-.665 3.665-.727 4.274zm-1.768-3.587a4.833 4.833 0 0 0-.545-.033c-1.384 0-2.084.412-2.084 1.226 0 .5.342.82.875.82.995 0 1.712-.822 1.754-2.013z"/><path id="vqi4d" d="M660.674 389.209h-2.328l1.334-7.61-2.978 7.61h-1.586l-.196-7.567-1.401 7.567h-2.179l1.82-9.899h3.347l.202 5.54 2.043-5.54h3.722l-1.8 9.899"/><path id="vqi4e" d="M700.85 389.21h-2.018l.046-.834c-.616.658-1.437.973-2.552.973-1.322 0-2.226-.896-2.226-2.199 0-1.96 1.575-3.103 4.277-3.103.276 0 .63.022.992.062.076-.266.095-.379.095-.522 0-.533-.424-.733-1.562-.733a9.244 9.244 0 0 0-2.58.363c.027-.134.34-1.81.34-1.81 1.213-.311 2.015-.427 2.914-.427 2.094 0 3.2.817 3.198 2.36.005.415-.074.924-.197 1.596-.21 1.165-.665 3.665-.726 4.274zm-1.776-3.587a4.762 4.762 0 0 0-.54-.033c-1.38 0-2.075.412-2.075 1.226 0 .5.339.82.87.82.99 0 1.704-.822 1.745-2.013z"/><path id="vqi4f" d="M676.754 389.086c-.714.183-1.27.262-1.873.262-1.332 0-2.06-.623-2.06-1.769-.018-.356.192-1.292.357-2.145.151-.753 1.13-5.494 1.13-5.494h2.591l-.302 1.218h1.565l-.353 1.935h-1.57c-.302 1.531-.73 3.438-.736 3.691 0 .415.273.596.893.596.297 0 .527-.024.703-.075l-.345 1.781"/><path id="vqi4g" d="M681.982 384.25c.014-.168.258-1.437-1.13-1.437-.773 0-1.327.511-1.55 1.437h2.68zm1.365 4.772a9.431 9.431 0 0 1-2.491.327c-2.719-.003-4.136-1.234-4.136-3.591 0-2.752 1.803-4.778 4.25-4.778 2.002 0 3.281 1.134 3.281 2.913 0 .59-.087 1.167-.3 1.98h-4.835c-.163 1.168.698 1.654 2.111 1.654.869 0 1.653-.155 2.525-.506l-.405 2.001z"/><path id="vqi4h" d="M668.01 383.705c0 1.017.577 1.72 1.888 2.247 1.004.404 1.16.523 1.16.889 0 .501-.443.729-1.424.729-.74 0-1.429-.1-2.223-.319l-.341 1.86c.564.104 1.066.201 2.582.238 2.617 0 3.826-.851 3.826-2.69 0-1.107-.505-1.756-1.748-2.244-1.04-.408-1.16-.499-1.16-.875 0-.435.412-.657 1.214-.657.487 0 1.152.044 1.783.12l.352-1.867a19.551 19.551 0 0 0-2.183-.156c-2.775 0-3.736 1.238-3.727 2.725"/><path id="vqi4i" d="M693.584 381.192c.638 0 1.234.153 2.054.534l.376-2.148c-.338-.122-1.523-.838-2.526-.838-1.538 0-2.84.704-3.754 1.864-1.334-.407-1.883.416-2.555 1.236l-.597.129c.045-.27.086-.538.073-.81h-2.112c-.288 2.492-.798 5.016-1.198 7.509l-.105.541h2.3c.383-2.299.593-3.77.721-4.767l.866-.442c.13-.444.534-.594 1.346-.575a8.334 8.334 0 0 0-.163 1.65c0 2.634 1.544 4.273 4.017 4.273.637 0 1.185-.077 2.032-.29l.403-2.255c-.762.345-1.386.507-1.952.507-1.336 0-2.145-.91-2.145-2.411 0-2.18 1.202-3.707 2.919-3.707"/><path id="vqi4j" d="M708.67 387.349c-.78 0-1.175-.535-1.175-1.587 0-1.582.739-2.704 1.779-2.704.788 0 1.215.554 1.215 1.577 0 1.595-.75 2.714-1.818 2.714zm2.869-8.039l-.51 2.86c-.626-.762-1.3-1.314-2.189-1.314-1.157 0-2.21.81-2.9 2.004-.96-.184-1.953-.497-1.953-.497v.007c.076-.667.108-1.073.1-1.211h-2.106c-.286 2.492-.797 5.015-1.196 7.508l-.105.542h2.295c.31-1.858.547-3.403.721-4.626.785-.655 1.177-1.224 1.968-1.187a6.446 6.446 0 0 0-.555 2.612c0 2.012 1.1 3.34 2.769 3.34.84 0 1.485-.268 2.114-.889l-.108.75h2.17l1.747-9.899h-2.262z"/><path id="vqi4k" d="M661.284 388.618h-2.328l1.334-7.61-2.977 7.61h-1.587l-.196-7.565-1.401 7.565h-2.179l1.82-9.898h3.347l.094 6.127 2.258-6.127h3.615l-1.8 9.898"/><path id="vqi4l" d="M668.09 388.62h-2.018l.046-.834c-.615.659-1.437.974-2.553.974-1.32 0-2.225-.898-2.225-2.2 0-1.96 1.574-3.102 4.277-3.102.276 0 .63.022.993.062.075-.266.095-.38.095-.523 0-.533-.424-.731-1.562-.731a9.191 9.191 0 0 0-2.58.36c.027-.133.339-1.81.339-1.81 1.213-.31 2.014-.426 2.915-.426 2.092 0 3.2.818 3.198 2.36.004.414-.075.926-.197 1.596-.212 1.165-.666 3.666-.728 4.274zm-1.768-3.586a4.67 4.67 0 0 0-.545-.033c-1.384 0-2.084.412-2.084 1.225 0 .5.342.82.875.82.995 0 1.712-.82 1.754-2.012z"/><path id="vqi4m" d="M696.62 378.994l-.396 2.148c-.863-.38-1.488-.534-2.158-.534-1.805 0-3.07 1.529-3.07 3.71 0 1.501.85 2.409 2.255 2.409.595 0 1.253-.161 2.053-.508l-.425 2.256c-.89.212-1.466.29-2.136.29-2.602 0-4.223-1.64-4.223-4.273 0-3.539 2.24-6.012 5.444-6.012 1.055 0 2.302.392 2.656.514"/><path id="vqi4n" d="M701.46 388.62h-2.018l.046-.834c-.616.659-1.438.974-2.553.974-1.321 0-2.225-.898-2.225-2.2 0-1.96 1.573-3.102 4.276-3.102.276 0 .63.022.992.062.076-.266.095-.38.095-.523 0-.533-.423-.731-1.561-.731a9.197 9.197 0 0 0-2.579.36c.026-.133.338-1.81.338-1.81 1.214-.31 2.014-.426 2.915-.426 2.092 0 3.2.818 3.198 2.36.005.414-.074.926-.197 1.596-.21 1.165-.665 3.666-.727 4.274zm-1.777-3.586a4.59 4.59 0 0 0-.54-.033c-1.377 0-2.074.412-2.074 1.225 0 .5.34.82.87.82.99 0 1.704-.82 1.744-2.012z"/><path id="vqi4o" d="M677.397 388.496c-.719.182-1.28.261-1.888.261-1.344 0-2.078-.622-2.078-1.767-.018-.357.194-1.292.361-2.146.152-.753 1.14-5.494 1.14-5.494h2.613l-.305 1.218h1.341l-.357 1.934h-1.346c-.303 1.533-.736 3.439-.742 3.691 0 .417.276.597.901.597.3 0 .531-.024.71-.076l-.35 1.782"/><path id="vqi4p" d="M682.593 383.66c.013-.168.257-1.437-1.13-1.437-.774 0-1.327.513-1.553 1.437h2.683zm1.365 4.774a9.499 9.499 0 0 1-2.493.326c-2.719-.002-4.135-1.234-4.135-3.591 0-2.753 1.802-4.779 4.248-4.779 2.004 0 3.283 1.134 3.283 2.915 0 .59-.09 1.165-.299 1.979h-4.837c-.163 1.168.699 1.655 2.111 1.655.869 0 1.653-.156 2.526-.508l-.404 2.003z"/><path id="vqi4q" d="M668.619 383.115c0 1.02.578 1.72 1.89 2.248 1.004.404 1.16.523 1.16.889 0 .502-.444.728-1.426.728-.74 0-1.428-.098-2.223-.317l-.34 1.858c.563.105 1.066.201 2.58.239 2.62 0 3.828-.851 3.828-2.69 0-1.107-.506-1.756-1.749-2.243-1.04-.41-1.16-.5-1.16-.876 0-.435.413-.659 1.215-.659.486 0 1.152.046 1.782.122l.353-1.866a19.713 19.713 0 0 0-2.183-.158c-2.776 0-3.736 1.238-3.727 2.725"/><path id="vqi4r" d="M709.08 386.758c1.11 0 1.89-1.118 1.89-2.713 0-1.023-.444-1.578-1.263-1.578-1.08 0-1.848 1.122-1.848 2.705 0 1.053.411 1.586 1.221 1.586zm3.515 1.86h-2.253l.111-.75c-.653.621-1.323.89-2.196.89-1.731 0-2.877-1.327-2.877-3.341 0-2.678 1.776-4.934 3.877-4.934.923 0 1.623.335 2.275 1.097l.528-2.86h2.35l-1.815 9.898z"/><path id="vqi4s" d="M702.729 380.576c-.317 2.492-.882 5.015-1.323 7.509l-.116.54h2.538c.908-4.922 1.127-5.882 2.551-5.762.227-1.008.65-1.89.964-2.335-1.063-.185-1.657.316-2.435 1.27.062-.413.174-.813.153-1.222h-2.332"/><path id="vqi4t" d="M685.29 380.576c-.319 2.492-.884 5.015-1.325 7.509l-.115.54h2.54c.908-4.922 1.125-5.882 2.548-5.762.228-1.008.65-1.89.964-2.335-1.062-.185-1.656.316-2.433 1.27.061-.413.174-.813.152-1.222h-2.33"/></defs><g><g transform="translate(-650 -364)"><g><use fill="#c00" xlink:href="#vqi4a"/></g><g><use fill="#f90" xlink:href="#vqi4b"/></g><g><use fill="#006" xlink:href="#vqi4c"/></g><g><use fill="#006" xlink:href="#vqi4d"/></g><g><use fill="#006" xlink:href="#vqi4e"/></g><g><use fill="#006" xlink:href="#vqi4f"/></g><g><use fill="#006" xlink:href="#vqi4g"/></g><g><use fill="#006" xlink:href="#vqi4h"/></g><g><use fill="#006" xlink:href="#vqi4i"/></g><g><use fill="#006" xlink:href="#vqi4j"/></g><g><use fill="#fff" xlink:href="#vqi4k"/></g><g><use fill="#fff" xlink:href="#vqi4l"/></g><g><use fill="#fff" xlink:href="#vqi4m"/></g><g><use fill="#fff" xlink:href="#vqi4n"/></g><g><use fill="#fff" xlink:href="#vqi4o"/></g><g><use fill="#fff" xlink:href="#vqi4p"/></g><g><use fill="#fff" xlink:href="#vqi4q"/></g><g><use fill="#fff" xlink:href="#vqi4r"/></g><g><use fill="#fff" xlink:href="#vqi4s"/></g><g><use fill="#fff" xlink:href="#vqi4t"/></g></g></g></svg>