<?xml version="1.0"?>
<svg xmlns="http://www.w3.org/2000/svg" xmlns:xlink="http://www.w3.org/1999/xlink" version="1.1" id="Capa_1" x="0px" y="0px" viewBox="0 0 508.827 508.827" style="enable-background:new 0 0 508.827 508.827;" xml:space="preserve" width="512px" height="512px"><g><g>
	<g>
		<path d="M254.414,508.827c-140.032,0-254.41-114.378-254.41-254.41S114.381,0.007,254.414,0.007    c140.032-1.069,254.41,113.309,254.41,253.341S394.446,508.827,254.414,508.827z M254.414,31.007    c-122.929,0-222.342,99.412-222.342,222.342S131.485,475.69,254.414,475.69s222.342-99.412,222.342-222.342    S377.343,31.007,254.414,31.007z" data-original="#231F20" class="active-path" data-old_color="#009EF7" fill="#009EF7"/>
		<g>
			<path d="M360.24,269.383H254.414c-8.552,0-16.034-7.483-16.034-16.034s7.483-16.034,16.034-16.034H360.24     c8.552,0,16.034,7.483,16.034,16.034C376.274,262.969,368.791,269.383,360.24,269.383z" data-original="#231F20" class="active-path" data-old_color="#009EF7" fill="#009EF7"/>
			<path d="M254.414,269.383H148.588c-8.552,0-16.034-7.483-16.034-16.034s7.483-16.034,16.034-16.034     h105.826c8.552,0,16.034,7.483,16.034,16.034C270.448,262.969,262.965,269.383,254.414,269.383z" data-original="#231F20" class="active-path" data-old_color="#009EF7" fill="#009EF7"/>
		</g>
	</g>
</g></g> </svg>
