<svg xmlns="http://www.w3.org/2000/svg" xmlns:xlink="http://www.w3.org/1999/xlink" width="119" height="26" viewBox="0 0 119 26"><defs><path id="4kqja" d="M553.265 592.218c0-.736-.547-1.231-1.326-1.231h-1.021v2.452h1.021c.779 0 1.326-.495 1.326-1.221zm6.104 2.284c0-.968-.547-1.631-1.326-1.631-.789 0-1.336.663-1.336 1.631s.547 1.631 1.336 1.631c.779 0 1.326-.663 1.326-1.631zm11.609-.505h2.295c-.042-.716-.474-1.211-1.074-1.211-.652 0-1.157.485-1.221 1.211zm9.557 0h2.294c-.042-.716-.474-1.211-1.073-1.211-.653 0-1.158.485-1.221 1.211zm8.009 1.631v-2.252c-.304-.316-.67-.474-1.037-.474-.765 0-1.289.653-1.289 1.6 0 .947.524 1.599 1.29 1.599.366 0 .732-.158 1.036-.473zm9.146-1.126c0-.947-.526-1.6-1.284-1.6-.368 0-.737.158-1.052.474v2.252c.315.315.684.473 1.052.473.758 0 1.284-.652 1.284-1.599zm42.51-.513c0-1.485-.715-2.649-1.754-2.649-.651 0-1.06.238-1.356.563l.017 4.219c.276.299.673.539 1.339.539 1.05 0 1.754-1.143 1.754-2.672zm6.332-1.034h2.936c0-1.278-.74-1.815-1.437-1.815-.71 0-1.499.536-1.499 1.815zm5.622 1.073c0 .275-.025.87-.038 1.023h-5.559c.127 1.331 1.102 1.723 2.209 1.723 1.127 0 2.015-.238 2.789-.628v2.287c-.771.428-1.79.736-3.147.736-2.766 0-4.704-1.732-4.704-5.156 0-2.892 1.644-5.188 4.345-5.188 2.697 0 4.105 2.295 4.105 5.203zm-9.147-.101c0 3.608-1.86 5.242-3.893 5.242-.996 0-1.603-.419-2.012-.718l-.006 3.213-2.842.604-.001-13.254h2.503l.148.701a3.186 3.186 0 0 1 2.227-.89c1.996 0 3.876 1.796 3.876 5.102zm-10.008 5.049h-2.85v-9.962h2.85zm0-11.433l-2.85.606v-2.313l2.85-.606zm-3.714 4.082c-.362-.117-1.497-.287-2.17.594v6.747h-2.843v-9.952h2.46l.178.839c.667-1.222 1.996-.974 2.375-.838zm-6.105-.19h-2.156v4.04c0 1.673 1.792 1.152 2.155 1.007v2.311c-.378.208-1.064.376-1.992.376-1.685 0-2.95-1.241-2.95-2.922l.013-9.109 2.772-.59.002 2.466h2.156zm-10.032.468c0 1.278 4.347.67 4.347 4.056 0 2.044-1.63 3.21-3.994 3.21-.98 0-2.051-.19-3.109-.644v-2.711c.954.518 2.17.907 3.112.907.634 0 1.091-.17 1.091-.695 0-1.355-4.322-.845-4.322-3.988 0-2.01 1.537-3.213 3.843-3.213.943 0 1.884.144 2.826.519v2.675c-.865-.467-1.963-.731-2.828-.731-.596 0-.966.172-.966.615zm-8.459-.032l-2.989 7.566h-1.305l1.01-2.494-2.01-5.072h1.379l1.263 3.452 1.273-3.452zm-5.621 2.631c0 1.62-.968 2.757-2.378 2.757-.452 0-.916-.168-1.336-.495v.369h-1.347v-7.567h1.347v2.663c.42-.316.884-.484 1.336-.484 1.41 0 2.378 1.136 2.378 2.757zm-9.156 2.631h-1.358v-.369c-.41.327-.873.495-1.336.495-1.4 0-2.378-1.137-2.378-2.757 0-1.621.978-2.757 2.378-2.757.463 0 .926.168 1.336.484v-2.663h1.358zm-5.789-2.758c0 .148 0 .316-.021.495h-3.567c.084.8.716 1.347 1.599 1.347.485 0 1.021-.179 1.568-.495v1.127a4.298 4.298 0 0 1-1.789.41c-1.589 0-2.704-1.158-2.704-2.799 0-1.589 1.094-2.715 2.599-2.715 1.379 0 2.315 1.084 2.315 2.63zm-5.399-1.38a1.773 1.773 0 0 0-.473-.063c-.442 0-.916.241-1.263.683v3.508h-1.347v-5.252h1.347v.525c.379-.42.842-.651 1.294-.651.148 0 .295.01.442.052zm-4.147 1.38c0 .148 0 .316-.021.495h-3.575c.085.8.717 1.347 1.603 1.347.485 0 1.023-.179 1.571-.495v1.127a4.321 4.321 0 0 1-1.792.41c-1.593 0-2.71-1.158-2.71-2.799 0-1.589 1.096-2.715 2.604-2.715 1.381 0 2.32 1.084 2.32 2.63zm-5.304-2.504l-1.797 5.262h-1.208l-1.073-3.578-1.062 3.578h-1.208l-1.808-5.262h1.345l1.062 3.578 1.062-3.578h1.218l1.062 3.578 1.062-3.578zm-8.525 2.631c0 1.61-1.116 2.757-2.705 2.757s-2.715-1.147-2.715-2.757c0-1.621 1.126-2.757 2.715-2.757s2.705 1.136 2.705 2.757zm-6.094-2.284c0 1.368-1.052 2.315-2.526 2.315h-1.21v2.6h-1.347v-7.241h2.557c1.474 0 2.526.958 2.526 2.326zM660 601v-14a6 6 0 0 0-6-6H547a6 6 0 0 0-6 6v14a6 6 0 0 0 6 6h107a6 6 0 0 0 6-6z"/></defs><g><g transform="translate(-541 -581)"><use fill="#fff" xlink:href="#4kqja"/></g></g></svg>