<svg xmlns="http://www.w3.org/2000/svg" x="0px" y="0px"
width="30" height="30"
viewBox="0 0 172 172"
style=" fill:#000000;"><g transform=""><g fill="none" fill-rule="nonzero" stroke="none" stroke-width="1" stroke-linecap="butt" stroke-linejoin="miter" stroke-miterlimit="10" stroke-dasharray="" stroke-dashoffset="0" font-family="none" font-weight="none" font-size="none" text-anchor="none" style="mix-blend-mode: normal"><path d="M0,172v-172h172v172z" fill="none"></path><g id="original-icon" fill="#6772e5"><path d="M17.2,24.08c-9.48687,0 -17.2,7.71313 -17.2,17.2v89.44c0,9.48688 7.71313,17.2 17.2,17.2h137.6c9.48688,0 17.2,-7.71312 17.2,-17.2v-89.44c0,-9.48687 -7.71312,-17.2 -17.2,-17.2zM89.1175,61.92c0.30906,-0.06719 0.645,0 0.9675,0c2.56656,0 4.6225,2.01563 4.6225,4.6225c0,2.56656 -2.05594,4.6225 -4.6225,4.6225c-2.60687,0 -4.73,-2.05594 -4.73,-4.6225c0,-2.27094 1.62594,-4.1925 3.7625,-4.6225zM57.835,66.005v7.955h5.6975l-1.075,6.5575h-4.6225v11.61c0,2.02906 0.83313,2.9025 2.58,2.9025c0.81969,0 2.0425,-0.29562 2.58,-0.43v6.9875c-0.9675,0.24188 -2.44562,0.645 -4.73,0.645c-2.95625,0 -4.98531,-0.645 -6.45,-1.8275c-1.74687,-1.42437 -2.58,-3.64156 -2.58,-6.9875v-12.9h-3.655l0.9675,-6.1275l2.6875,-0.43l1.075,-6.665zM34.9375,73.4225c4.23281,0 7.32344,1.11531 8.815,1.8275l-1.075,6.665c-1.88125,-0.92719 -4.63594,-1.935 -7.31,-1.935c-1.46469,0 -2.2575,0.51063 -2.2575,1.505c0,1.1825 1.47813,1.935 4.085,2.9025c4.87781,1.74688 7.8475,3.7625 7.8475,8.7075c0,2.98313 -1.02125,5.30781 -3.01,6.88c-1.77375,1.42438 -4.46125,2.2575 -7.6325,2.2575c-3.99094,0 -7.82062,-1.29 -9.89,-2.4725l1.075,-6.665c2.41875,1.42438 6.14094,2.58 8.385,2.58c1.81406,0 2.795,-0.645 2.795,-1.8275c0,-1.20937 -0.98094,-2.01562 -4.085,-3.1175c-4.81062,-1.74687 -7.74,-3.87 -7.74,-8.7075c0,-2.67406 0.94063,-4.81062 2.795,-6.3425c1.78719,-1.46469 4.20594,-2.2575 7.2025,-2.2575zM113.735,73.4225c2.78156,0 4.98531,0.98094 6.5575,3.01c1.78719,2.28438 2.6875,5.83188 2.6875,10.535c0,5.30781 -1.26312,9.32563 -3.655,11.9325c-2.49937,2.70094 -5.64375,3.3325 -7.8475,3.3325c-1.24969,0 -2.62031,-0.215 -3.9775,-0.645v8.815l-8.9225,1.505v-37.9475h7.8475l0.43,2.795c2.09625,-2.24406 4.31344,-3.3325 6.88,-3.3325zM138.5675,73.4225c3.66844,0 6.46344,1.26313 8.385,3.7625c1.88125,2.45906 2.9025,5.89906 2.9025,10.32c0,0.645 -0.06719,2.6875 -0.1075,3.1175h-14.62c0.17469,1.81406 0.68531,3.09063 1.6125,3.87c0.84656,0.7525 2.05594,1.075 3.7625,1.075c2.84875,0 5.34813,-0.5375 7.525,-1.72l0.9675,6.02c-2.20375,1.46469 -5.68406,2.365 -9.46,2.365c-4.09844,0 -7.25625,-1.08844 -9.46,-3.225c-2.45906,-2.37844 -3.7625,-6.08719 -3.7625,-11.0725c0,-8.90906 4.74344,-14.5125 12.255,-14.5125zM80.5175,73.53c0.5375,0 1.00781,0.08063 1.6125,0.215v8.17c-0.60469,-0.1075 -1.03469,-0.1075 -1.505,-0.1075c-2.13656,0 -3.73562,0.47031 -4.8375,1.8275v18.06h-8.815v-27.735h7.74l0.5375,3.225c0.77938,-2.35156 2.76813,-3.655 5.2675,-3.655zM85.57,73.96h8.9225v27.735h-8.9225zM137.7075,79.4425c-1.57219,0.40313 -2.4725,2.35156 -2.6875,5.805h6.5575c-0.13437,-3.92375 -1.23625,-5.805 -3.225,-5.805c-0.25531,0 -0.41656,-0.05375 -0.645,0zM110.8325,80.195c-0.49719,0 -1.84094,0.14781 -3.3325,1.72v13.115c0.71219,0.34938 1.47813,0.5375 2.365,0.5375c1.27656,0 2.40531,-0.68531 3.1175,-2.0425c0.81969,-1.42437 1.1825,-3.53406 1.1825,-6.235c0,-4.74344 -1.08844,-7.095 -3.3325,-7.095z"></path></g><path d="" fill="none"></path><path d="" fill="none"></path><path d="" fill="none"></path><path d="" fill="none"></path></g></g></svg>