<svg xmlns="http://www.w3.org/2000/svg" xmlns:xlink="http://www.w3.org/1999/xlink" width="61" height="20" viewBox="0 0 61 20"><defs><path id="xz7wa" d="M417.49 402.544l3.075-19.074h4.915l-3.075 19.074h-4.915"/><path id="xz7wb" d="M440.238 383.94c-.972-.383-2.5-.8-4.404-.8-4.86 0-8.28 2.588-8.309 6.295-.03 2.742 2.441 4.27 4.305 5.182 1.915.934 2.558 1.532 2.55 2.367-.012 1.277-1.528 1.863-2.941 1.863-1.968 0-3.013-.288-4.63-1l-.632-.304-.687 4.27c1.146.53 3.27.992 5.476 1.016 5.164 0 8.52-2.557 8.559-6.515.017-2.174-1.292-3.822-4.129-5.183-1.717-.884-2.771-1.47-2.76-2.365.002-.793.891-1.642 2.816-1.642a8.62 8.62 0 0 1 3.679.733l.441.218.666-4.135"/><path id="xz7wc" d="M452.843 383.49h-3.798c-1.178 0-2.06.337-2.576 1.581l-7.299 17.48h5.162s.842-2.351 1.034-2.867c.563 0 5.579.01 6.295.01.147.665.598 2.857.598 2.857h4.562l-3.978-19.061zm-6.063 12.292c.407-1.096 1.958-5.331 1.958-5.331-.029.05.405-1.105.653-1.82l.332 1.645s.943 4.553 1.137 5.506h-4.08z"/><path id="xz7wd" d="M413.364 383.49l-4.81 13.004-.516-2.643c-.896-3.046-3.687-6.347-6.808-8.001l4.401 16.681 5.202-.003 7.74-19.038h-5.209"/><path id="xz7we" d="M404.091 383.48h-7.926l-.065.395c6.167 1.58 10.248 5.394 11.941 9.979l-1.722-8.765c-.297-1.208-1.16-1.567-2.228-1.609"/></defs><g><g transform="translate(-396 -383)"><g><use fill="#fffffe" xlink:href="#xz7wa"/></g><g><use fill="#fffffe" xlink:href="#xz7wb"/></g><g><use fill="#fffffe" xlink:href="#xz7wc"/></g><g><use fill="#fffffe" xlink:href="#xz7wd"/></g><g><use fill="#ec982d" xlink:href="#xz7we"/></g></g></g></svg>