<svg xmlns="http://www.w3.org/2000/svg" xmlns:xlink="http://www.w3.org/1999/xlink" width="32" height="20" viewBox="0 0 32 20"><defs><path id="pfdha" d="M469 351a4 4 0 0 1 4-4h24a4 4 0 0 1 4 4v12a4 4 0 0 1-4 4h-24a4 4 0 0 1-4-4z"/><path id="pfdhb" d="M482.83 360.178l1.025-6.358h1.638l-1.025 6.358h-1.638"/><path id="pfdhc" d="M490.416 353.977a4.05 4.05 0 0 0-1.468-.267c-1.62 0-2.76.863-2.77 2.098-.01.914.814 1.424 1.435 1.728.639.311.853.51.85.789-.004.425-.509.62-.98.62-.656 0-1.004-.095-1.543-.333l-.21-.101-.23 1.423c.382.177 1.09.33 1.825.339 1.722 0 2.84-.852 2.853-2.172.006-.724-.43-1.274-1.376-1.727-.572-.295-.924-.49-.92-.789 0-.264.297-.547.939-.547.536-.009.924.115 1.226.244l.147.073.222-1.378"/><path id="pfdhd" d="M494.618 353.83h-1.266c-.393 0-.687.112-.859.527l-2.433 5.827h1.72s.281-.784.345-.956l2.099.003c.049.222.199.953.199.953h1.52l-1.325-6.354zm-2.021 4.107l.652-1.784c-.01.017.135-.37.218-.61l.11.551.38 1.843h-1.36z"/><path id="pfdhe" d="M481.455 353.83l-1.604 4.335-.172-.881c-.298-1.016-1.229-2.116-2.269-2.667l1.467 5.56h1.734l2.58-6.347h-1.736"/><path id="pfdhf" d="M478.364 353.83h-2.642l-.022.132c2.056.526 3.416 1.798 3.98 3.326l-.574-2.922c-.099-.402-.387-.522-.742-.536"/></defs><g><g transform="translate(-469 -347)"><g><use fill="#fff" xlink:href="#pfdha"/></g><g><use fill="#26337a" xlink:href="#pfdhb"/></g><g><use fill="#26337a" xlink:href="#pfdhc"/></g><g><use fill="#26337a" xlink:href="#pfdhd"/></g><g><use fill="#26337a" xlink:href="#pfdhe"/></g><g><use fill="#ec982d" xlink:href="#pfdhf"/></g></g></g></svg>